<svg width="122" height="121" viewBox="0 0 122 121" fill="none" xmlns="http://www.w3.org/2000/svg">
<path d="M21.0291 0.0254245C23.5202 -0.0397074 26.7856 0.0299344 29.2672 0.125522C30.0449 0.155168 29.6511 0.287688 30.188 0.31412C31.238 0.365646 32.2163 0.300652 33.2539 0.362032C33.5978 0.383023 33.1698 0.592935 33.5304 0.610139C35.5063 0.702908 37.3757 0.649441 39.3774 0.694062C49.2371 0.914213 58.9289 0.993012 68.9092 1.08865C72.2 1.12001 76.2003 1.31051 79.5993 1.2272C79.9961 1.21729 79.7596 1.03304 79.835 1.01785C81.0191 0.785374 80.6254 1.15734 81.3985 1.20676C84.467 1.40188 87.8791 1.41886 90.8321 1.34775C92.0884 1.31696 90.8288 0.950988 92.0938 1.1564C92.1816 1.17028 91.8628 1.36594 92.2074 1.38681C92.9887 1.43375 94.4711 1.39877 95.0766 1.41428C96.2437 1.44514 96.4367 1.44317 97.5406 1.4454C99.0496 1.45015 100.844 1.54741 102.463 1.50308C102.809 1.49304 102.351 1.29246 102.903 1.25833C103.107 1.2457 103.436 1.24008 103.795 1.24043C104.453 1.2379 105.197 1.30959 105.524 1.37436C106.046 1.47781 105.802 1.61168 105.89 1.65778C106.599 2.02351 108.412 2.02076 108.646 2.10011C112.779 3.17212 115.735 5.76347 117.941 9.00428C119.638 11.4828 120.741 14.6282 120.872 17.5026C120.89 17.8398 120.897 18.17 120.894 18.5C120.867 21.3043 120.78 23.7833 120.797 26.5843C120.799 26.9123 121.035 26.528 121.037 26.9286C121.065 31.1846 121.039 35.4109 120.88 39.6486C120.864 40.0735 120.657 39.5258 120.628 39.9504C120.458 42.55 120.049 46.6632 120.951 48.2071C120.915 49.968 120.879 52.1057 120.697 53.6811C120.58 54.6968 120.355 53.7103 120.451 54.958C120.472 55.2394 120.67 54.8734 120.687 55.2954C120.759 57.0722 120.695 59.0134 120.797 60.7711C120.819 61.1286 120.996 61.0309 121.027 61.1323C121.286 61.9836 120.859 63.4009 120.828 63.7098C120.597 66.0625 120.688 67.7806 120.682 69.9723C120.681 70.4809 120.918 69.8797 120.926 70.3691C120.96 72.9074 120.939 75.5368 120.834 78.0221C120.81 78.575 120.607 78.0666 120.585 78.3308C120.491 79.4956 120.874 79.7539 120.791 80.871C120.774 81.1066 120.601 80.9739 120.582 81.0169C120.283 81.6892 120.707 82.2735 120.716 82.4464C120.844 84.6341 120.401 86.0325 120.464 88.1459C120.472 88.3987 120.691 87.8286 120.7 88.5393C120.761 93.2742 120.701 98.2818 120.525 102.969C120.498 103.697 120.333 103.177 120.313 103.223C120.272 103.32 120.243 103.412 120.225 103.5C120.098 104.105 120.393 104.519 120.391 104.739C120.364 106.719 119.523 108.369 119.496 109.784C116.937 116.009 110.502 120.5 103.795 120.254C102.237 120.213 100.68 120.152 99.1244 120.062C99.0243 120.057 99.2037 119.847 99.004 119.838C96.5993 119.72 97.0611 120.046 95.47 120.444C95.0692 120.544 93.8499 120.063 93.7421 120.028C93.349 119.898 93.7567 119.586 93.625 119.561C92.5359 119.364 92.7134 120.394 91.2442 120.395C91.1982 120.393 91.3912 120.203 91.2679 120.184C90.8848 120.125 90.5049 120.201 90.1301 120.135C89.2721 119.984 88.9664 119.483 87.6559 119.775C87.4901 119.813 87.7434 120.397 86.4316 120.37C85.9087 120.358 83.5938 120.368 82.9451 120.33C82.2971 120.292 82.742 120.104 82.6958 120.096C80.9499 119.847 81.6119 119.744 80.7372 119.375C79.8626 119.007 80.1051 119.884 79.7486 119.981C79.3914 120.079 78.1113 119.873 77.7967 119.802C77.4824 119.731 77.8745 119.611 77.5949 119.57C75.7412 119.306 76.7813 120.005 76.1705 120.144C74.7305 120.474 73.6089 119.824 72.2906 119.76C71.9339 119.743 72.2249 119.891 71.9073 119.905C70.6493 119.958 69.8927 119.755 68.4615 119.941C68.2274 119.971 67.0704 120.362 66.3215 120.075C66.2154 120.034 66.5168 119.872 65.9806 119.836C65.1797 119.781 63.7366 119.746 62.8757 119.8C62.24 119.84 62.9686 120.107 62.1685 120.024C61.813 119.987 62.472 119.831 61.8039 119.774C61.1395 119.718 59.4405 119.725 58.7939 119.73C58.1486 119.736 58.5018 119.938 58.4497 119.952C58.1341 120.03 56.8956 120.127 56.7861 120.127C51.2657 120.152 46.175 119.811 40.8001 119.923C40.3783 119.932 40.6593 120.146 40.5949 120.149C39.1509 120.238 40.2894 119.671 39.2807 119.481C39.4265 119.914 38.831 119.836 37.8139 119.883C37.3237 119.906 37.5907 120.074 37.5459 120.091C36.8191 120.346 36.3129 120.017 36.1825 119.95C35.7012 119.702 35.1773 119.995 34.8497 119.829C34.5223 119.665 35.2758 119.421 34.3002 119.425C34.0267 119.58 34.7509 119.985 34.0103 120.05C31.2158 120.299 25.9994 119.981 23.7526 119.948C21.5101 119.915 20.7859 119.944 19.4792 119.887C17.2849 119.793 17.8782 120.047 16.7949 120.193C16.709 120.204 16.613 120.214 16.505 120.222C14.9604 120.301 15.7602 119.582 15.5547 119.416C15.362 119.242 15.1242 119.384 14.8777 119.266C14.6367 119.148 15.1919 119.11 14.609 119.001C14.0295 118.913 12.3852 118.805 12.1272 118.88C11.5875 119.07 12.1908 119.698 10.668 118.998C10.5826 118.955 10.9398 118.889 10.6106 118.736C8.00181 117.526 5.58583 115.651 3.9741 113.318C3.75463 112.997 4.13585 113.143 4.01269 112.957C2.81561 110.972 2.99619 111.856 2.00515 110.893C2.63301 110.901 2.52695 110.152 1.96065 108.527C1.6445 107.536 1.47984 107.77 1.15164 107.141C1.05053 106.949 1.06765 106.18 0.941215 106.062C0.529272 105.664 0.169161 106.452 0.163729 104.539C0.166406 104.455 0.379978 104.706 0.375099 104.421C0.37081 104.06 0.363118 103.763 0.349129 103.5C0.292424 102.458 0.0405544 102.015 0.00369072 100.462C-0.0323019 98.9471 0.198669 96.2531 0.236234 94.5283C0.842608 94.5646 0.703756 92.9355 0.285672 92.2746C0.302789 91.1553 0.279154 89.9463 0.336942 88.8644C0.356643 88.4921 0.532205 88.7367 0.551174 88.6898C0.848749 87.9698 0.441999 87.4832 0.426053 87.2416C0.271043 84.623 0.579325 82.4895 0.278043 79.9905C0.267192 79.9018 -0.154014 79.7581 0.153532 79.09C0.174731 79.0468 0.366372 79.8722 0.381192 78.6966C0.396045 77.5208 0.621842 75.3043 0.426663 73.672C0.379675 73.277 0.0377409 72.2779 0.304898 71.476C0.341176 71.3692 0.461979 71.4861 0.529202 71.3319C0.743399 70.8333 0.317664 70.5612 0.679348 69.9753C1.04101 69.3893 1.31188 68.1705 1.06234 66.5244C1.05509 66.4719 0.717652 66.0822 0.722988 65.5646C0.731795 64.7381 0.802089 63.565 0.799892 62.7021C0.798718 62.2889 0.589186 62.5534 0.585354 62.4816C0.46794 59.7037 0.654736 57.7266 0.735805 54.7506C0.751081 54.2051 0.465354 52.6373 0.69125 51.5812C0.938535 50.4216 1.9672 51.6132 1.72213 48.9477C1.62411 47.8726 0.319054 46.5115 0.995204 44.5794C0.827658 40.8323 1.17371 37.367 0.934474 33.6095C0.923875 33.4405 0.559645 32.9062 0.564602 32.5089C0.572666 31.9192 0.742901 31.5954 0.754116 31.1743C0.805393 29.4098 0.659745 27.7951 0.682399 26.0938C0.690631 25.4479 0.866652 25.6738 0.876491 24.9034C0.886164 24.1335 0.654377 23.6201 0.766323 22.5768C0.851651 21.7888 1.32542 21.001 1.38064 19.9551C0.989566 19.9218 0.932502 19.4133 0.851995 18.5C0.836302 18.3215 0.822634 18.1278 0.809925 17.9195C0.795574 17.6737 0.622605 17.9302 0.607598 17.8129C0.544252 17.3283 0.716334 16.9 0.682763 16.4374C0.675106 16.3248 0.517722 16.2985 0.503583 16.204C0.366162 15.3852 1.02858 14.2017 1.15583 14.0204C1.61728 13.29 1.55808 12.863 1.88605 12.3049C2.22052 11.7592 1.95497 12.6707 2.29938 12.0212C3.00887 10.6831 4.04736 9.04277 5.09226 7.92207C5.50666 7.47505 5.06956 7.63517 5.12511 7.56785C5.96388 6.58527 7.10872 5.96693 7.44887 5.2145C8.80421 5.63409 8.00143 4.64181 9.76784 3.9782C9.90924 3.93084 10.2853 4.3218 9.83885 4.6265C9.3972 4.93052 8.60444 5.19353 8.05716 5.71566C7.91594 5.83576 7.41783 6.81925 7.34535 6.92741C6.70612 7.76109 6.08781 7.32148 6.01022 7.32845C5.20531 7.44755 4.76685 8.75691 4.61591 9.02903C3.8468 10.2917 3.14446 11.3293 2.76657 12.5032C2.53001 13.2731 2.98946 13.517 2.78718 14.0829C2.19873 15.9228 1.42392 16.633 1.93062 18.5C1.94188 18.5403 1.95366 18.581 1.96596 18.6223C2.09699 19.064 2.65209 18.625 2.2156 20.2078C2.18808 20.3072 1.78877 21.4824 2.04134 22.1613C2.07319 22.2466 2.23497 22.2439 2.24856 22.3563C2.33646 23.11 2.20758 23.6126 2.26931 24.4337C2.33104 25.2546 2.42306 26.2418 2.36819 27.1791C2.33537 27.744 2.03396 28.4688 1.96017 28.7392C1.74759 29.5028 2.09613 30.3215 1.83871 30.7945C1.57999 31.2715 1.18709 30.3389 1.01992 31.5898C1.44023 31.6361 1.87164 31.7426 2.29433 31.817C2.27953 34.5583 2.14362 37.2555 2.16219 40.0059C2.16491 40.3469 2.39087 39.9982 2.39962 40.3637C2.43552 41.906 2.27444 43.253 2.33858 44.8524C2.3891 46.0905 2.62834 47.448 2.68862 48.7425C2.20767 49.5333 2.37094 51.4542 2.32699 52.8497C2.3118 53.3385 2.18335 53.3058 2.14144 53.6535C1.98645 54.965 2.41147 54.3504 2.47835 54.7099C2.76381 56.2525 1.80182 56.3846 1.82558 58.2032C1.82652 58.2996 2.3393 59.4773 2.37124 59.6395C2.57946 60.6703 2.19276 59.8101 2.15487 60.4552C2.08563 61.6329 1.96317 62.4514 2.11336 63.8332C2.15785 64.2361 2.47747 65.2026 2.23025 65.9851C2.19787 66.088 2.02838 66.0312 2.01845 66.114C1.853 67.6137 2.38557 67.6531 2.56594 68.5101C2.74627 69.3673 2.37863 70.6911 2.27267 70.9605C1.99855 71.6653 2.15552 70.4204 2.12862 70.3822C1.80851 69.9339 1.86362 70.8994 1.83657 71.6371C1.31438 71.7439 1.34572 72.7756 1.81063 72.4019C1.86141 72.3594 1.81271 71.7852 1.83657 71.6371C2.34891 72.2847 2.41453 73.4185 1.93575 74.6708C1.71136 75.257 1.44972 74.7029 1.54543 76.4836C1.58864 77.2918 1.9482 76.9795 2.04623 77.6927C2.26989 79.3221 1.93448 81.4393 1.98733 83.1192C2.00651 83.7288 2.20333 83.1349 2.22323 83.5516C2.27664 84.6573 2.12896 85.6325 2.20461 86.743C2.21172 86.8436 2.41774 86.5978 2.42037 86.9431C2.4443 89.5611 2.31233 91.8407 2.30868 94.5741C2.307 95.8948 2.42063 98.256 2.39779 99.6241C2.37815 100.837 2.29013 102.193 2.21859 103.5C2.14798 104.639 2.23771 105.751 2.46687 106.629C2.79079 107.796 2.94367 107.476 3.22253 107.919C3.74728 108.754 4.07822 110.485 4.15699 110.736C4.1523 110.748 3.62342 109.853 3.78865 110.393C3.74833 110.786 4.15166 110.728 4.15699 110.736C4.16013 110.911 5.29368 112.66 5.62343 112.926C5.78501 113.082 5.85187 112.86 5.93289 112.942C7.86037 114.889 10.207 116.344 12.814 117.196C12.8595 117.213 12.7281 117.403 12.8372 117.441C14.3776 117.961 15.4706 117.802 16.7691 117.659C16.7777 117.658 16.7863 117.657 16.7949 117.656C18.2516 117.501 19.4082 117.556 20.2728 117.929C21.3822 117.881 22.974 118.047 23.8899 118.148C24.8058 118.248 24.9336 117.823 25.0142 117.815C27.5278 117.546 28.9809 117.789 31.5887 117.827C32.8285 117.846 35.2878 117.784 36.6302 117.738C37.6911 117.7 38.3303 117.8 39.3078 117.736C39.4401 117.727 39.3065 117.538 39.3468 117.531C40.4378 117.304 39.9135 117.767 40.1388 117.85C40.9554 118.15 41.46 118.31 42.8571 118.169C43.1793 118.137 44.1181 117.47 44.7055 117.431C45.4692 117.382 45.181 117.621 45.9807 117.563C46.0491 117.558 46.0349 117.411 46.5284 117.417C48.8195 117.446 51.3173 117.531 53.6981 117.517C54.0234 117.515 53.6064 117.281 54.0763 117.275C56.2811 117.248 58.6978 117.256 60.8458 117.366C61.3745 117.393 61.0431 117.557 61.1578 117.606C61.8625 117.9 62.8617 117.473 63.0266 117.464C66.9594 117.259 69.9694 117.646 73.9779 117.462C74.1961 117.451 75.8756 116.993 76.625 117.386C76.6763 117.412 77.4176 117.814 78.0731 117.539C78.1139 117.522 77.6519 117.315 78.4581 117.336C79.2643 117.357 80.5617 117.219 81.6699 117.446C82.0207 117.518 82.8499 117.918 83.8964 117.599C83.9646 117.577 85.5802 116.854 86.1569 117.353C86.2504 117.435 86.1525 117.962 87.4016 117.692C87.6402 117.639 87.207 117.522 87.8357 117.448C88.799 117.335 90.0753 117.476 91.2594 117.241C91.466 117.2 92.345 116.842 93.0502 117.113C93.1606 117.156 92.9508 117.332 93.3232 117.352C95.094 117.446 96.9483 117.329 98.7463 117.45C99.3831 117.493 99.0575 117.778 99.7213 117.854C100.385 117.93 101.723 118.004 102.418 117.874C103.112 117.743 102.353 117.29 103.394 117.254C103.528 117.249 103.661 117.245 103.795 117.241C107.547 117.13 111.309 115.769 113.963 112.979C114.357 112.551 113.925 112.808 114.468 112.156C116.146 110.242 117.542 106.407 117.566 103.5C117.6 102.681 117.649 101.938 117.717 101.317C117.993 98.7852 118.204 101.971 118.316 100.037C118.37 99.1031 117.842 98.0931 117.826 97.8677C117.657 95.6662 117.891 94.1362 117.819 92.1547C117.804 91.7455 117.59 92.1468 117.58 91.7986C117.543 90.609 117.638 89.3588 117.621 88.2222C117.612 87.7122 117.449 87.8062 117.462 87.337C117.49 86.2142 117.559 85.2214 117.712 84.1269C117.726 84.0271 117.929 84.6998 117.936 83.8691C117.948 82.5247 118.099 80.856 117.943 79.3092C117.896 78.8503 117.523 78.8323 117.781 77.8458C117.835 77.6388 118.283 77.9029 117.895 76.7537C117.831 76.5604 117.309 74.63 117.645 73.6827C117.734 73.4327 118.101 72.7948 118.043 72.243C118.034 72.1681 117.833 72.4679 117.814 72.0106C117.749 70.3989 117.77 68.7097 117.707 67.0539C117.69 66.6117 117.483 67.2703 117.464 66.6113C117.411 64.799 117.464 62.5364 117.529 60.7643C117.553 60.1109 117.725 60.5625 117.744 60.515C118.048 59.7505 117.637 59.2985 117.613 59.0448C117.47 57.4667 117.663 56.265 117.612 54.8104C117.598 54.409 117.403 54.6937 117.385 54.6137C117.215 53.785 117.566 54.4023 117.605 53.8778C117.715 52.4082 117.699 50.77 117.674 49.2839C117.664 48.738 117.437 49.3516 117.432 48.8617C117.392 45.9622 117.414 42.948 117.539 40.1183C117.563 39.5855 117.738 39.9207 117.778 39.8097C118.057 39.0443 117.676 37.9226 117.64 37.6645C117.474 36.491 117.629 36.0351 117.6 34.9988C117.456 29.936 117.559 23.6849 117.622 18.9059C117.624 18.7699 117.626 18.6347 117.627 18.5C117.638 13.2978 115.292 9.05118 110.934 6.41741C110.647 6.25301 110.818 6.62028 110.571 6.48497C108.488 5.34782 106.166 4.71757 103.795 4.71537C102.358 4.71348 100.918 4.71787 99.4687 4.74099C99.1233 4.74608 99.6211 4.96648 99.0668 4.98207C97.9296 5.0156 96.4892 5.00362 95.3395 4.93325C94.7787 4.89934 95.5309 4.71022 94.9664 4.67995C93.6521 4.60905 92.2432 4.59335 90.8932 4.62868C90.3186 4.6442 91.1855 4.86961 90.4387 4.87221C85.3519 4.89457 80.3562 4.9334 75.2158 4.6415C74.8634 4.62145 74.5542 4.16333 73.8049 4.25118C73.7485 4.37832 73.7515 4.52788 73.7269 4.66378C66.3218 4.73698 58.9924 4.57816 51.5666 4.55361C51.2535 4.55263 51.7946 4.79536 51.1884 4.7947C47.6801 4.79111 44.2734 4.85835 40.6848 4.61708C40.3288 4.59349 40.5114 4.16645 39.4622 4.23104C39.2771 4.24282 37.6968 4.29978 37.2882 4.39248C37.2327 4.40646 37.521 4.60578 37.0118 4.61159C34.0524 4.64186 30.9513 4.59635 27.9971 4.47457C27.5203 4.45453 28.028 4.24227 27.6884 4.22616C25.2796 4.11348 22.6594 4.27484 20.3576 4.08211C18.8169 3.95235 19.3873 3.58543 18.5686 3.22427C18.4528 3.17331 17.4987 3.16524 17.4494 2.9551C17.3227 2.4267 17.7848 1.84811 17.5952 1.28488C17.5551 1.16357 16.2774 1.29423 17.0339 1.00107C17.0868 0.981448 18.0131 0.88415 18.2413 0.784699C18.4002 0.715941 18.1139 0.502235 18.438 0.414217C18.7621 0.326282 19.1182 0.505422 19.6556 0.40201C20.1927 0.297318 19.9565 0.0542033 21.0291 0.0254245ZM28.014 118.597C28.8621 118.801 28.9873 118.054 28.07 118.233C28.0256 118.242 27.9703 118.587 28.014 118.597ZM1.57961 37.2401C1.24981 38.3489 1.73475 39.1076 1.98946 38.3254C2.2439 37.5433 1.67959 36.9023 1.57961 37.2401ZM1.33883 25.7428C1.0788 27.0386 2.13912 27.2426 1.92477 25.8547C1.91265 25.774 1.35393 25.667 1.33883 25.7428ZM22.3654 3.12142C22.3537 3.11149 21.6679 3.10182 21.6515 3.11166C21.2863 3.34914 22.6577 3.36832 22.3654 3.12142ZM1.60288 14.4517C1.34955 14.7997 1.29562 15.962 1.56473 15.5109C1.76829 15.154 1.9014 14.0259 1.60288 14.4517ZM72.255 119.395C72.2683 119.406 72.76 119.416 72.7501 119.353C72.7167 119.151 72.0325 119.208 72.255 119.395ZM15.2469 2.84474C12.4884 3.138 10.4875 2.97194 13.6505 2.25109C14.2194 2.15081 12.4883 2.78617 13.2242 2.706C14.5368 2.56943 15.3799 1.92039 16.7697 2.19951C17.0044 2.2392 15.391 2.81246 15.242 2.84644C15.2437 2.84588 15.2453 2.84531 15.2469 2.84474ZM28.5024 119.495C28.5194 119.505 29.2 119.515 29.2163 119.505C29.5849 119.267 28.2137 119.248 28.5024 119.495ZM100.946 119.858C100.983 119.879 102.563 119.898 102.614 119.879C103.438 119.491 100.245 119.45 100.946 119.858ZM0.252408 94.5012C0.013597 93.7585 -0.0145204 92.8701 0.285367 92.278C0.269447 93.0161 0.267102 93.7591 0.252408 94.5012Z" fill="#9C9C9C"/>
<path fill-rule="evenodd" clip-rule="evenodd" d="M49.7025 34.5H30.7949L53.2128 63.8658L32.229 88.5H41.9241L57.7948 69.8684L71.8874 88.3288H90.7949L67.7258 58.1097L67.7666 58.1618L87.6295 34.843H77.9344L63.1838 52.1599L49.7025 34.5ZM41.2316 39.6429H47.1177L80.3583 83.1856H74.4721L41.2316 39.6429Z" fill="#565656"/>
</svg>
