<svg width="38" height="12" viewBox="0 0 38 12" fill="none" xmlns="http://www.w3.org/2000/svg">
<path d="M2.48367 2.53223L2.29167 3.43223C2.44367 3.22423 2.59567 3.05623 2.74767 2.92823C2.89967 2.80023 3.04367 2.70423 3.17967 2.64023C3.32367 2.56823 3.45567 2.52423 3.57567 2.50823C3.70367 2.48423 3.81967 2.47223 3.92367 2.47223C4.16367 2.47223 4.36367 2.50823 4.52367 2.58023C4.68367 2.65223 4.81167 2.75223 4.90767 2.88023C5.00367 3.00023 5.06767 3.14423 5.09967 3.31223C5.13967 3.47223 5.15967 3.64423 5.15967 3.82823C5.15967 4.09223 5.12767 4.36823 5.06367 4.65623C5.00767 4.94423 4.94367 5.22823 4.87167 5.50823C4.79967 5.78823 4.73167 6.06423 4.66767 6.33623C4.61167 6.60823 4.58367 6.86423 4.58367 7.10423C4.58367 7.27223 4.60767 7.41223 4.65567 7.52423C4.70367 7.63623 4.79967 7.69223 4.94367 7.69223C5.31967 7.69223 5.69567 7.25623 6.07167 6.38423H6.51567C6.32367 6.88823 6.13167 7.28823 5.93967 7.58423C5.74767 7.88023 5.55967 8.10423 5.37567 8.25623C5.19967 8.40023 5.03167 8.49223 4.87167 8.53223C4.71967 8.58023 4.58367 8.60423 4.46367 8.60423C4.04767 8.60423 3.75167 8.47623 3.57567 8.22023C3.39967 7.95623 3.31167 7.63223 3.31167 7.24823C3.31167 6.98423 3.33967 6.70823 3.39567 6.42023C3.45967 6.13223 3.52767 5.84823 3.59967 5.56823C3.67167 5.28823 3.73567 5.02023 3.79167 4.76423C3.85567 4.50023 3.88767 4.26023 3.88767 4.04423C3.88767 3.84423 3.85167 3.68423 3.77967 3.56423C3.70767 3.44423 3.56767 3.38423 3.35967 3.38423C2.86367 3.38423 2.41967 3.81223 2.02767 4.66823L1.19967 8.53223H-0.000328146L1.27167 2.53223H2.48367ZM6.98123 0.804226C6.98123 0.588226 7.05723 0.400226 7.20923 0.240226C7.36123 0.0802262 7.54923 0.000226259 7.77323 0.000226259C7.98923 0.000226259 8.17723 0.0802262 8.33723 0.240226C8.49723 0.400226 8.57723 0.588226 8.57723 0.804226C8.57723 1.02823 8.49723 1.21623 8.33723 1.36823C8.17723 1.52023 7.98923 1.59623 7.77323 1.59623C7.54923 1.59623 7.36123 1.52023 7.20923 1.36823C7.05723 1.21623 6.98123 1.02823 6.98123 0.804226ZM8.09723 2.53223L7.22123 6.61223C7.18123 6.77223 7.16123 6.95223 7.16123 7.15223C7.16123 7.28823 7.18523 7.41223 7.23323 7.52423C7.28123 7.63623 7.38123 7.69223 7.53323 7.69223C7.72523 7.69223 7.91723 7.57623 8.10923 7.34423C8.30923 7.11223 8.49723 6.79223 8.67323 6.38423H9.11723C8.92523 6.88823 8.73323 7.28823 8.54123 7.58423C8.34923 7.87223 8.16123 8.09223 7.97723 8.24423C7.80123 8.39623 7.62923 8.49223 7.46123 8.53223C7.30123 8.58023 7.15723 8.60423 7.02923 8.60423C6.82123 8.60423 6.64923 8.56823 6.51323 8.49623C6.37723 8.42423 6.26923 8.32823 6.18923 8.20823C6.10923 8.08823 6.04923 7.94823 6.00923 7.78823C5.97723 7.62823 5.96123 7.45623 5.96123 7.27223C5.96123 7.12823 5.96923 6.98023 5.98523 6.82823C6.00923 6.67623 6.03723 6.52823 6.06923 6.38423L6.88523 2.53223H8.09723ZM10.6868 2.53223L10.4708 3.51623C10.5828 3.38823 10.6988 3.26423 10.8188 3.14423C10.9388 3.01623 11.0628 2.90423 11.1908 2.80823C11.3268 2.70423 11.4668 2.62423 11.6108 2.56823C11.7548 2.50423 11.9108 2.47223 12.0788 2.47223C12.3188 2.47223 12.4908 2.52823 12.5948 2.64023C12.6988 2.74423 12.7508 2.87623 12.7508 3.03623C12.7508 3.18823 12.7228 3.31623 12.6668 3.42023C12.6188 3.51623 12.5588 3.59623 12.4868 3.66023C12.4148 3.71623 12.3388 3.75623 12.2588 3.78023C12.1788 3.80423 12.1108 3.81623 12.0548 3.81623C11.9828 3.81623 11.9268 3.80023 11.8868 3.76823C11.8548 3.73623 11.8188 3.70423 11.7788 3.67223C11.7468 3.63223 11.7068 3.59623 11.6588 3.56423C11.6108 3.53223 11.5428 3.51623 11.4548 3.51623C11.2788 3.51623 11.0908 3.58023 10.8908 3.70823C10.6988 3.82823 10.5188 3.96023 10.3508 4.10423L9.4028 8.53223H8.2028L9.4748 2.53223H10.6868ZM17.946 2.53223L17.07 6.61223C17.03 6.77223 17.01 6.95223 17.01 7.15223C17.01 7.28823 17.034 7.41223 17.082 7.52423C17.13 7.63623 17.23 7.69223 17.382 7.69223C17.574 7.69223 17.766 7.57623 17.958 7.34423C18.158 7.11223 18.346 6.79223 18.522 6.38423H18.966C18.774 6.88823 18.582 7.28823 18.39 7.58423C18.198 7.87223 18.01 8.09223 17.826 8.24423C17.65 8.39623 17.478 8.49223 17.31 8.53223C17.15 8.58023 17.006 8.60423 16.878 8.60423C16.614 8.60423 16.394 8.51223 16.218 8.32823C16.05 8.14423 15.95 7.84423 15.918 7.42823C15.734 7.75623 15.478 8.03623 15.15 8.26823C14.83 8.49223 14.478 8.60423 14.094 8.60423C13.902 8.60423 13.714 8.57223 13.53 8.50823C13.346 8.43623 13.182 8.32423 13.038 8.17223C12.894 8.01223 12.778 7.81223 12.69 7.57223C12.602 7.32423 12.558 7.02423 12.558 6.67223C12.558 6.40023 12.586 6.10823 12.642 5.79623C12.706 5.48423 12.794 5.17223 12.906 4.86023C13.018 4.54823 13.162 4.24823 13.338 3.96023C13.514 3.67223 13.714 3.42023 13.938 3.20423C14.162 2.98023 14.414 2.80423 14.694 2.67623C14.982 2.54023 15.294 2.47223 15.63 2.47223C15.822 2.47223 16.018 2.51623 16.218 2.60423C16.418 2.69223 16.55 2.86023 16.614 3.10823L16.734 2.53223H17.946ZM14.598 7.69223C14.726 7.69223 14.858 7.66023 14.994 7.59623C15.13 7.52423 15.258 7.43223 15.378 7.32023C15.506 7.20023 15.618 7.06023 15.714 6.90023C15.81 6.74023 15.878 6.56823 15.918 6.38423L16.494 3.66023C16.47 3.52423 16.41 3.40423 16.314 3.30023C16.218 3.18823 16.078 3.13223 15.894 3.13223C15.566 3.13223 15.274 3.25223 15.018 3.49223C14.762 3.73223 14.546 4.02423 14.37 4.36823C14.194 4.71223 14.062 5.08023 13.974 5.47223C13.886 5.86423 13.842 6.20823 13.842 6.50423C13.842 6.96023 13.91 7.27223 14.046 7.44023C14.182 7.60823 14.366 7.69223 14.598 7.69223ZM20.5423 2.53223L20.3503 3.43223C20.5023 3.22423 20.6543 3.05623 20.8063 2.92823C20.9583 2.80023 21.1023 2.70423 21.2383 2.64023C21.3823 2.56823 21.5143 2.52423 21.6343 2.50823C21.7623 2.48423 21.8783 2.47223 21.9823 2.47223C22.2223 2.47223 22.4223 2.50823 22.5823 2.58023C22.7423 2.65223 22.8703 2.75223 22.9663 2.88023C23.0623 3.00023 23.1263 3.14423 23.1583 3.31223C23.1983 3.47223 23.2183 3.64423 23.2183 3.82823C23.2183 4.09223 23.1863 4.36823 23.1223 4.65623C23.0663 4.94423 23.0023 5.22823 22.9303 5.50823C22.8583 5.78823 22.7903 6.06423 22.7263 6.33623C22.6703 6.60823 22.6423 6.86423 22.6423 7.10423C22.6423 7.27223 22.6663 7.41223 22.7143 7.52423C22.7623 7.63623 22.8583 7.69223 23.0023 7.69223C23.3783 7.69223 23.7543 7.25623 24.1303 6.38423H24.5743C24.3823 6.88823 24.1903 7.28823 23.9983 7.58423C23.8063 7.88023 23.6183 8.10423 23.4343 8.25623C23.2583 8.40023 23.0903 8.49223 22.9303 8.53223C22.7783 8.58023 22.6423 8.60423 22.5223 8.60423C22.1063 8.60423 21.8103 8.47623 21.6343 8.22023C21.4583 7.95623 21.3703 7.63223 21.3703 7.24823C21.3703 6.98423 21.3983 6.70823 21.4543 6.42023C21.5183 6.13223 21.5863 5.84823 21.6583 5.56823C21.7303 5.28823 21.7943 5.02023 21.8503 4.76423C21.9143 4.50023 21.9463 4.26023 21.9463 4.04423C21.9463 3.84423 21.9103 3.68423 21.8383 3.56423C21.7663 3.44423 21.6263 3.38423 21.4183 3.38423C20.9223 3.38423 20.4783 3.81223 20.0863 4.66823L19.2583 8.53223H18.0583L19.3303 2.53223H20.5423ZM26.1438 2.53223L24.9198 8.29223C25.1358 8.22023 25.3318 8.14023 25.5078 8.05223C25.6918 7.95623 25.8558 7.83623 25.9998 7.69223C26.1438 7.54023 26.2758 7.36023 26.3958 7.15223C26.5158 6.94423 26.6278 6.68823 26.7318 6.38423H27.1758C27.0318 6.80823 26.8798 7.15623 26.7198 7.42823C26.5678 7.69223 26.3958 7.91223 26.2038 8.08823C26.0118 8.25623 25.7998 8.38823 25.5678 8.48423C25.3438 8.58023 25.0958 8.66023 24.8238 8.72423L24.6678 9.49223C24.5798 9.92423 24.4798 10.2722 24.3678 10.5362C24.2638 10.8002 24.1438 11.0042 24.0078 11.1482C23.8798 11.3002 23.7358 11.4002 23.5758 11.4482C23.4158 11.5042 23.2358 11.5322 23.0358 11.5322C22.6678 11.5322 22.3558 11.4482 22.0998 11.2802C21.8438 11.1202 21.7158 10.8442 21.7158 10.4522C21.7158 10.2522 21.7758 10.0642 21.8958 9.88823C22.0078 9.72023 22.1558 9.56023 22.3398 9.40823C22.5238 9.25623 22.7318 9.12023 22.9638 9.00023C23.1878 8.88023 23.4118 8.77623 23.6358 8.68823L24.9438 2.53223H26.1438ZM25.0398 0.804226C25.0398 0.588226 25.1158 0.400226 25.2678 0.240226C25.4198 0.0802262 25.6078 0.000226259 25.8318 0.000226259C26.0478 0.000226259 26.2358 0.0802262 26.3958 0.240226C26.5558 0.400226 26.6358 0.588226 26.6358 0.804226C26.6358 1.02823 26.5558 1.21623 26.3958 1.36823C26.2358 1.52023 26.0478 1.59623 25.8318 1.59623C25.6078 1.59623 25.4198 1.52023 25.2678 1.36823C25.1158 1.21623 25.0398 1.02823 25.0398 0.804226ZM22.6278 10.9082C22.8518 10.9082 23.0238 10.7802 23.1438 10.5242C23.2638 10.2682 23.3678 9.93223 23.4558 9.51623L23.5398 9.13223C23.0998 9.32423 22.7638 9.53623 22.5318 9.76823C22.2998 10.0002 22.1838 10.2242 22.1838 10.4402C22.1838 10.5762 22.2238 10.6882 22.3038 10.7762C22.3758 10.8642 22.4838 10.9082 22.6278 10.9082ZM31.9734 2.53223L31.0974 6.61223C31.0574 6.77223 31.0374 6.95223 31.0374 7.15223C31.0374 7.28823 31.0614 7.41223 31.1094 7.52423C31.1574 7.63623 31.2574 7.69223 31.4094 7.69223C31.6014 7.69223 31.7934 7.57623 31.9854 7.34423C32.1854 7.11223 32.3734 6.79223 32.5494 6.38423H32.9934C32.8014 6.88823 32.6094 7.28823 32.4174 7.58423C32.2254 7.87223 32.0374 8.09223 31.8534 8.24423C31.6774 8.39623 31.5054 8.49223 31.3374 8.53223C31.1774 8.58023 31.0334 8.60423 30.9054 8.60423C30.6414 8.60423 30.4214 8.51223 30.2454 8.32823C30.0774 8.14423 29.9774 7.84423 29.9454 7.42823C29.7614 7.75623 29.5054 8.03623 29.1774 8.26823C28.8574 8.49223 28.5054 8.60423 28.1214 8.60423C27.9294 8.60423 27.7414 8.57223 27.5574 8.50823C27.3734 8.43623 27.2094 8.32423 27.0654 8.17223C26.9214 8.01223 26.8054 7.81223 26.7174 7.57223C26.6294 7.32423 26.5854 7.02423 26.5854 6.67223C26.5854 6.40023 26.6134 6.10823 26.6694 5.79623C26.7334 5.48423 26.8214 5.17223 26.9334 4.86023C27.0454 4.54823 27.1894 4.24823 27.3654 3.96023C27.5414 3.67223 27.7414 3.42023 27.9654 3.20423C28.1894 2.98023 28.4414 2.80423 28.7214 2.67623C29.0094 2.54023 29.3214 2.47223 29.6574 2.47223C29.8494 2.47223 30.0454 2.51623 30.2454 2.60423C30.4454 2.69223 30.5774 2.86023 30.6414 3.10823L30.7614 2.53223H31.9734ZM28.6254 7.69223C28.7534 7.69223 28.8854 7.66023 29.0214 7.59623C29.1574 7.52423 29.2854 7.43223 29.4054 7.32023C29.5334 7.20023 29.6454 7.06023 29.7414 6.90023C29.8374 6.74023 29.9054 6.56823 29.9454 6.38423L30.5214 3.66023C30.4974 3.52423 30.4374 3.40423 30.3414 3.30023C30.2454 3.18823 30.1054 3.13223 29.9214 3.13223C29.5934 3.13223 29.3014 3.25223 29.0454 3.49223C28.7894 3.73223 28.5734 4.02423 28.3974 4.36823C28.2214 4.71223 28.0894 5.08023 28.0014 5.47223C27.9134 5.86423 27.8694 6.20823 27.8694 6.50423C27.8694 6.96023 27.9374 7.27223 28.0734 7.44023C28.2094 7.60823 28.3934 7.69223 28.6254 7.69223ZM36.6696 7.05623C36.6696 7.48023 36.8136 7.69223 37.1016 7.69223C37.2136 7.69223 37.3376 7.66423 37.4736 7.60823C37.4576 7.82423 37.4096 8.00023 37.3296 8.13623C37.2496 8.26423 37.1536 8.36423 37.0416 8.43623C36.9376 8.50023 36.8296 8.54423 36.7176 8.56823C36.6056 8.59223 36.5096 8.60423 36.4296 8.60423C36.1256 8.60423 35.8776 8.49223 35.6856 8.26823C35.4936 8.03623 35.3976 7.70023 35.3976 7.26023C35.3976 7.00423 35.4256 6.73223 35.4816 6.44423C35.5456 6.15623 35.6136 5.87223 35.6856 5.59223C35.7576 5.30423 35.8216 5.02823 35.8776 4.76423C35.9416 4.50023 35.9736 4.26023 35.9736 4.04423C35.9736 3.84423 35.9376 3.68423 35.8656 3.56423C35.7936 3.44423 35.6536 3.38423 35.4456 3.38423C34.9496 3.38423 34.5056 3.81223 34.1136 4.66823L33.2856 8.53223H32.0856L33.3576 2.53223H34.5696L34.3776 3.43223C34.5296 3.22423 34.6816 3.05623 34.8336 2.92823C34.9856 2.80023 35.1296 2.70423 35.2656 2.64023C35.4096 2.56823 35.5416 2.52423 35.6616 2.50823C35.7896 2.48423 35.9056 2.47223 36.0096 2.47223C36.2496 2.47223 36.4496 2.50823 36.6096 2.58023C36.7696 2.65223 36.8976 2.75223 36.9936 2.88023C37.0896 3.00023 37.1536 3.14423 37.1856 3.31223C37.2256 3.47223 37.2456 3.64023 37.2456 3.81623C37.2456 4.08023 37.2136 4.36023 37.1496 4.65623C37.0936 4.94423 37.0296 5.22823 36.9576 5.50823C36.8856 5.78823 36.8176 6.06423 36.7536 6.33623C36.6976 6.60023 36.6696 6.84023 36.6696 7.05623Z" fill="white"/>
</svg>
